<svg width="186" height="42" viewBox="0 0 186 42" fill="none" xmlns="http://www.w3.org/2000/svg">
<path d="M117.478 17.1901C114.93 15.8441 111.332 16.2281 109.31 18.1361C106.984 20.3301 106.518 23.0661 107.466 25.9861C108.418 28.9161 110.692 30.2741 113.686 30.4741C116.04 30.6321 118.198 30.0341 120.218 28.6501C119.746 27.8121 119.31 27.0361 118.878 26.2661C114.506 28.3521 111.102 27.7021 110.714 24.7301H120.582C120.582 24.7301 120.716 24.4041 120.758 24.0641C121.118 21.1761 119.83 18.4321 117.478 17.1901V17.1901ZM110.706 22.0721C110.914 20.4221 112.322 19.2821 114.11 19.2901C115.82 19.2981 117.132 20.4321 117.298 22.0721H110.704H110.706Z" fill="#111111"/>
<path d="M84.2581 16.398C80.1021 16.406 77.0441 19.384 77.0361 23.43C77.0301 27.534 80.0941 30.554 84.2681 30.556C88.3961 30.556 91.4761 27.482 91.4581 23.378C91.4421 19.416 88.3201 16.39 84.2581 16.398V16.398ZM84.2661 27.326C82.1561 27.352 80.5061 25.616 80.5301 23.392C80.5521 21.282 82.1921 19.63 84.2601 19.634C86.3021 19.638 87.9661 21.338 87.9741 23.426C87.9801 25.582 86.3501 27.298 84.2681 27.324L84.2661 27.326Z" fill="#111111"/>
<path d="M161.36 16.398C157.202 16.38 154.112 19.35 154.09 23.382C154.068 27.502 157.104 30.536 161.272 30.556C165.414 30.576 168.484 27.552 168.512 23.426C168.54 19.48 165.42 16.416 161.36 16.398ZM161.246 27.326C159.154 27.294 157.564 25.596 157.58 23.41C157.598 21.298 159.228 19.64 161.294 19.636C163.37 19.632 165.05 21.372 165.022 23.5C164.994 25.652 163.31 27.36 161.246 27.328V27.326Z" fill="#111111"/>
<path d="M179.512 16.7061C177.42 15.9321 175.208 16.4881 173.714 18.1061C173.634 18.1941 173.524 18.2561 173.388 18.3601C173.36 17.7841 173.338 17.3001 173.314 16.8001H170.032V30.1461H173.464C173.464 29.7381 173.464 29.3901 173.464 29.0421C173.474 26.8381 173.428 24.6321 173.516 22.4321C173.584 20.7101 174.92 19.5681 176.612 19.6061C178.204 19.6421 179.23 20.7121 179.332 22.4581C179.354 22.8101 179.358 23.1621 179.358 23.5161C179.358 25.4261 179.358 27.3361 179.358 29.2461V30.1421H182.84C182.84 27.1701 182.922 24.2601 182.814 21.3581C182.73 19.1641 181.66 17.4981 179.512 16.7041V16.7061Z" fill="#111111"/>
<path d="M102.424 16.7061C100.332 15.9321 98.1203 16.4881 96.6263 18.1061C96.5463 18.1941 96.4363 18.2561 96.3003 18.3601C96.2723 17.7841 96.2503 17.3001 96.2263 16.8001H92.9443V30.1461H96.3763C96.3763 29.7381 96.3763 29.3901 96.3763 29.0421C96.3863 26.8381 96.3403 24.6321 96.4283 22.4321C96.4963 20.7101 97.8323 19.5681 99.5223 19.6061C101.114 19.6421 102.14 20.7121 102.244 22.4581C102.264 22.8101 102.27 23.1621 102.27 23.5161C102.27 25.4261 102.27 27.3361 102.27 29.2461V30.1421H105.752C105.752 27.1701 105.834 24.2601 105.726 21.3581C105.642 19.1641 104.572 17.4981 102.424 16.7041V16.7061Z" fill="#111111"/>
<path d="M139.59 12.0142H136.022V30.1542H147.832V26.6582H139.59V12.0142Z" fill="#111111"/>
<path d="M152.64 16.814H149.244V30.16H152.64V16.814Z" fill="#111111"/>
<path d="M150.961 10.98C149.715 10.988 148.771 11.944 148.811 13.16C148.849 14.356 149.781 15.24 150.989 15.222C152.207 15.206 153.077 14.314 153.075 13.086C153.075 11.874 152.169 10.972 150.961 10.98V10.98Z" fill="#111111"/>
<path d="M66.0385 21.63L59.3325 11.958H56.5225V30.07H60.0005V19.382L66.0385 28.092L72.0765 19.382V30.07H75.5545V11.958H72.7425L66.0385 21.63Z" fill="#111111"/>
<path d="M127.961 25.4799C127.961 25.4799 125.775 20.0259 124.479 16.8159H120.471C121.909 20.0699 125.545 28.2579 125.879 29.0159C126.049 29.4019 126.221 29.8019 126.225 30.2219C126.227 30.6419 126.059 31.0479 125.821 31.3939C124.953 32.6619 123.085 33.1159 121.733 32.3879C121.537 33.3399 121.343 34.2899 121.147 35.2419C122.539 36.0139 124.291 36.1899 125.743 35.5379C126.815 35.0559 127.663 34.1679 128.289 33.1719C128.915 32.1759 129.341 31.0699 129.759 29.9719C131.095 26.4839 133.791 19.4779 134.817 16.8159H130.929L127.963 25.4799H127.961Z" fill="#111111"/>
<path d="M183.222 10.998C182.01 10.998 181.044 11.938 181.044 13.112C181.044 14.286 182.01 15.252 183.222 15.252C184.434 15.252 185.388 14.312 185.388 13.112C185.388 11.912 184.448 10.998 183.222 10.998V10.998ZM183.236 14.8C182.282 14.8 181.586 14.052 181.586 13.112C181.586 12.172 182.282 11.424 183.224 11.424C184.166 11.424 184.848 12.184 184.848 13.126C184.848 14.068 184.164 14.802 183.236 14.802V14.8Z" fill="#111111"/>
<path d="M183.623 13.3002C183.729 13.2582 183.821 13.2002 183.889 13.1142C183.975 13.0042 184.019 12.8702 184.019 12.7142C184.019 12.6222 184.003 12.5362 183.971 12.4562C183.939 12.3762 183.893 12.3062 183.835 12.2462C183.777 12.1862 183.705 12.1382 183.619 12.1042C183.535 12.0702 183.439 12.0542 183.337 12.0542H182.509V14.1922H182.923V13.3702H183.133C183.145 13.3702 183.153 13.3702 183.165 13.3702L183.603 14.1922H184.069L183.587 13.3142C183.599 13.3082 183.609 13.3022 183.621 13.2982L183.623 13.3002ZM183.275 13.0042H182.925V12.4262H183.275C183.377 12.4262 183.457 12.4522 183.517 12.5062C183.575 12.5582 183.605 12.6282 183.605 12.7182C183.605 12.8082 183.577 12.8742 183.517 12.9262C183.459 12.9782 183.377 13.0062 183.275 13.0062V13.0042Z" fill="#111111"/>
<path fill-rule="evenodd" clip-rule="evenodd" d="M15.3943 2.52402C14.8263 2.86002 14.2883 3.17802 13.8463 3.36002C13.3623 3.56002 12.7303 3.72402 12.0603 3.90002C10.3743 4.34002 8.2763 4.88602 6.6383 6.51802C5.0003 8.14802 4.4503 10.236 4.0103 11.914C3.8363 12.582 3.6703 13.212 3.4683 13.694C3.2863 14.132 2.9683 14.666 2.6303 15.23C1.7303 16.74 0.612305 18.612 0.612305 21C0.612305 23.388 1.7303 25.26 2.6283 26.766C2.9663 27.332 3.2863 27.868 3.4683 28.306C3.6703 28.788 3.8343 29.418 4.0103 30.086C4.4523 31.764 5.0003 33.852 6.6383 35.484C8.2763 37.114 10.3743 37.66 12.0583 38.1C12.7323 38.276 13.3643 38.44 13.8463 38.64C14.2883 38.822 14.8243 39.14 15.3943 39.476C16.9063 40.37 18.7903 41.484 21.1883 41.484C23.5863 41.484 25.4683 40.37 26.9823 39.476C27.5543 39.138 28.0903 38.82 28.5283 38.64C29.0123 38.44 29.6423 38.276 30.3123 38.102C32.0043 37.662 34.1003 37.116 35.7383 35.486C37.3763 33.856 37.9243 31.768 38.3663 30.09C38.5423 29.422 38.7083 28.792 38.9083 28.31C39.0923 27.87 39.4103 27.336 39.7483 26.77C40.6463 25.264 41.7643 23.39 41.7643 21.002C41.7643 18.614 40.6463 16.742 39.7503 15.238C39.4103 14.67 39.0923 14.134 38.9083 13.696C38.7083 13.214 38.5423 12.584 38.3663 11.916C37.9243 10.236 37.3763 8.14802 35.7383 6.51802C34.1003 4.88602 32.0043 4.34002 30.3183 3.90202C29.6483 3.72802 29.0143 3.56202 28.5303 3.36202C28.0883 3.18002 27.5523 2.86202 26.9823 2.52602C25.4703 1.63202 23.5863 0.52002 21.1883 0.52002C18.7903 0.52002 16.9103 1.63202 15.3943 2.52602V2.52402ZM13.3483 13.868C13.0723 13.8 12.7883 13.71 12.5763 13.52C11.6943 12.734 13.1363 12.188 13.7403 12.042C16.7623 11.314 19.8723 10.978 22.9803 10.936C24.6683 10.914 26.3723 10.98 28.0123 11.382C28.7503 11.562 29.4863 11.818 30.0763 12.296C30.3643 12.53 30.6203 12.834 30.6683 13.2C30.7143 13.566 30.4723 13.98 30.1043 14.014C29.9803 14.026 29.8523 13.996 29.7243 13.968C29.5263 13.922 29.3323 13.878 29.1723 13.986C28.9703 14.122 28.9683 14.416 29.0263 14.652C29.3643 16.028 30.9123 16.826 31.3383 18.178C31.3943 18.356 31.4223 18.568 31.3043 18.712C31.2063 18.83 31.0423 18.864 30.8903 18.89C30.1843 19.01 29.4723 19.128 28.7563 19.1C28.0403 19.072 27.3123 18.882 26.7483 18.44C25.9283 17.796 25.5783 16.732 24.9223 15.922C24.2143 15.048 23.1723 14.508 22.0723 14.23C21.8543 14.174 21.6363 14.13 21.4163 14.096C20.0843 13.884 18.7243 13.99 17.3763 14.068C16.8423 14.098 16.3043 14.124 15.7663 14.124C14.9503 14.124 14.1383 14.064 13.3483 13.868V13.868ZM15.8243 20.966C15.4383 20.86 15.0323 20.726 14.7703 20.422C14.2583 19.824 14.4823 18.716 14.9563 18.162C15.4863 17.542 16.3883 17.316 17.1543 17.164C18.5163 16.898 19.9063 16.778 21.2943 16.804C21.8663 16.816 22.4723 16.864 22.9403 17.196C23.4823 17.58 23.7143 18.256 23.9143 18.888C23.9503 19.004 23.9883 19.124 23.9943 19.242C23.9983 19.304 23.9943 19.366 23.9783 19.428C23.9343 19.598 23.8023 19.73 23.6723 19.848C22.6463 20.766 21.2863 21.266 19.9143 21.402C19.6263 21.432 19.3383 21.444 19.0503 21.444C17.9623 21.444 16.8743 21.254 15.8243 20.964V20.966ZM32.9263 25.84C32.8443 25.83 32.7723 25.782 32.7063 25.736C32.3303 25.474 31.9703 25.174 31.7263 24.786C31.0243 23.666 31.0883 21.734 32.1403 20.866C32.1983 20.818 32.2623 20.772 32.3363 20.762C32.4423 20.748 32.5443 20.81 32.6283 20.876C33.4163 21.486 33.6943 22.538 33.8483 23.52C33.8963 23.836 33.9383 24.158 33.9203 24.476C33.9143 24.58 33.9023 24.686 33.8803 24.79C33.7963 25.206 33.5503 25.614 33.1623 25.792C33.1003 25.822 33.0343 25.844 32.9663 25.844C32.9543 25.844 32.9403 25.844 32.9283 25.842L32.9263 25.84ZM25.4523 26.318C25.1803 26.318 24.9023 26.292 24.6383 26.232C24.0323 26.09 23.4263 25.934 22.8303 25.754C22.5723 25.676 22.3203 25.554 22.0943 25.408C21.8703 25.264 21.7763 25.024 21.7963 24.75C21.8103 24.546 21.8183 24.342 21.8303 24.128C21.8303 23.936 21.8363 23.732 21.8303 23.528C21.8203 23.244 21.9043 22.986 22.1103 22.8C22.3263 22.604 22.5623 22.416 22.8183 22.278C23.4443 21.944 24.0863 21.64 24.7243 21.33C25.2903 21.056 25.8783 20.998 26.4823 21.198C26.9523 21.352 27.4203 21.512 27.8863 21.678C28.4403 21.876 28.7763 22.244 28.7903 22.856C28.7983 23.21 28.8063 23.564 28.8223 23.918C28.8483 24.522 28.5543 24.942 28.0463 25.226C27.5483 25.502 27.0403 25.76 26.5343 26.026C26.1983 26.202 25.8423 26.32 25.4623 26.32H25.4543L25.4523 26.318ZM28.1683 31.66C27.7343 31.446 27.3123 31.206 26.8843 30.982C26.4583 30.76 26.2963 30.412 26.4183 29.954C26.5583 29.426 26.7023 28.898 26.8523 28.372C26.9823 27.914 27.2823 27.578 27.6803 27.34C28.3083 26.968 28.9483 26.61 29.5943 26.266C29.9923 26.052 30.3963 26.048 30.7743 26.344C31.0123 26.53 31.2543 26.708 31.5003 26.884C31.9123 27.178 32.0223 27.596 31.9643 28.064C31.8963 28.612 31.8103 29.158 31.7183 29.702C31.6323 30.204 31.3763 30.602 30.9243 30.856C30.4703 31.112 30.0123 31.364 29.5563 31.614C29.3123 31.748 29.0503 31.824 28.7543 31.86C28.5583 31.796 28.3503 31.754 28.1663 31.662L28.1683 31.66Z" fill="#111111"/>
</svg>
